<svg width="77" height="17" viewBox="0 0 77 17" fill="none" xmlns="http://www.w3.org/2000/svg">
<mask id="mask0_10320_1975" style="mask-type:luminance" maskUnits="userSpaceOnUse" x="20" y="3" width="57" height="10">
<path d="M20.8672 3.84766H76.7238V12.1031H20.8672V3.84766Z" fill="white"/>
</mask>
<g mask="url(#mask0_10320_1975)">
<path d="M20.8672 7.97398C20.8672 5.56023 22.6309 3.84766 25.0312 3.84766C26.4368 3.84766 27.5508 4.38146 28.2933 5.3435L26.9247 6.62784C26.7187 6.34199 26.4486 6.10794 26.1359 5.94433C25.8285 5.78382 25.4867 5.69982 25.1396 5.6995C23.896 5.6995 23.0314 6.60576 23.0314 7.96555C23.0314 9.32534 23.896 10.2344 25.1529 10.2344C25.4986 10.2344 25.8398 10.1505 26.1492 9.98958C26.4619 9.82582 26.732 9.59166 26.938 9.30567L28.2933 10.6069C27.556 11.5689 26.4364 12.1031 25.0365 12.1031C22.6309 12.1031 20.8672 10.3901 20.8672 7.97398ZM34.9034 10.401H31.7023L31.1084 11.9442H28.9229L32.2727 4.00619H34.3944L37.7281 11.945H35.5002L34.9034 10.401ZM34.2775 8.74658L33.304 6.20521L32.3308 8.74658H34.2775ZM39.4317 5.79382H37.095V4.00579H43.8767V5.79382H41.5533V11.9442H39.4317V5.79382ZM49.3704 10.401H46.1693L45.5754 11.9442H43.3898L46.7316 4.00579H48.8533L52.206 11.9446H49.9782L49.3704 10.401ZM48.7448 8.74658L47.7687 6.20521L46.7955 8.74658H48.7448ZM53.3053 4.00619H55.4483V10.165H59.058V11.9442H53.303L53.3053 4.00619ZM59.7549 7.97398C59.7549 5.59395 61.5399 3.84766 63.9641 3.84766C66.3882 3.84766 68.1703 5.59355 68.1703 7.97358C68.1703 10.3536 66.3853 12.1031 63.9641 12.1031C61.5425 12.1031 59.7549 10.3568 59.7549 7.97398ZM66.0086 7.97398C66.0086 6.60295 65.1099 5.70793 63.9641 5.70793C62.8182 5.70793 61.9192 6.60295 61.9192 7.97398C61.9192 9.3446 62.8182 10.2428 63.9641 10.2428C65.1099 10.2428 66.0086 9.34781 66.0086 7.97398ZM74.6579 7.8042H76.562V11.0937C75.6337 11.7541 74.5204 12.1072 73.3794 12.1031C70.9662 12.1031 69.2051 10.3901 69.2051 7.97398C69.2051 5.55783 70.9581 3.84766 73.4142 3.84766C74.8303 3.84766 75.9787 4.35938 76.724 5.29895L75.3609 6.59211C75.139 6.3138 74.8573 6.0887 74.5365 5.93349C74.2208 5.78104 73.8738 5.70383 73.523 5.70793C72.2231 5.70793 71.3587 6.60295 71.3587 7.97398C71.3587 9.3446 72.2231 10.2428 73.5017 10.2428C73.9022 10.2465 74.2979 10.157 74.6579 9.98155V7.8042Z" fill="white"/>
</g>
<path d="M12.6318 0H4.93217C3.81625 0 2.74604 0.44163 1.95698 1.22773C1.16791 2.01384 0.724609 3.08002 0.724609 4.19174V11.8624C0.724556 12.4129 0.833352 12.958 1.04478 13.4666C1.25621 13.9752 1.56614 14.4373 1.95686 14.8265C2.34758 15.2158 2.81143 15.5245 3.32194 15.7352C3.83245 15.9458 4.3796 16.0542 4.93217 16.0542H12.6318C13.1844 16.0542 13.7315 15.9458 14.242 15.7352C14.7525 15.5245 15.2164 15.2158 15.6071 14.8265C15.9978 14.4373 16.3077 13.9752 16.5192 13.4666C16.7306 12.958 16.8394 12.4129 16.8393 11.8624V4.19174C16.8393 3.08002 16.396 2.01384 15.607 1.22773C14.8179 0.44163 13.7477 0 12.6318 0ZM14.485 11.0412H3.08018V9.13161H6.46831L3.7985 6.47183L5.15415 5.12168L7.82355 7.78145V4.04765H9.74V7.78145L12.411 5.12168L13.7663 6.47183L11.0961 9.13161H14.4858V11.0416L14.485 11.0412Z" fill="white"/>
</svg>
