<svg width="76" height="17" viewBox="0 0 76 17" fill="none" xmlns="http://www.w3.org/2000/svg">
<mask id="mask0_9266_2125" style="mask-type:luminance" maskUnits="userSpaceOnUse" x="20" y="3" width="56" height="10">
<path d="M20.1426 3.84766H75.9991V12.1031H20.1426V3.84766Z" fill="white"/>
</mask>
<g mask="url(#mask0_9266_2125)">
<path d="M20.1426 7.97398C20.1426 5.56023 21.9063 3.84766 24.3066 3.84766C25.7122 3.84766 26.8262 4.38146 27.5687 5.3435L26.2001 6.62784C25.9941 6.34199 25.724 6.10794 25.4113 5.94433C25.1039 5.78382 24.7621 5.69982 24.415 5.6995C23.1713 5.6995 22.3068 6.60576 22.3068 7.96555C22.3068 9.32534 23.1713 10.2344 24.4283 10.2344C24.774 10.2344 25.1152 10.1505 25.4246 9.98958C25.7373 9.82582 26.0074 9.59166 26.2134 9.30567L27.5687 10.6069C26.8314 11.5689 25.7118 12.1031 24.3119 12.1031C21.9063 12.1031 20.1426 10.3901 20.1426 7.97398ZM34.1788 10.401H30.9777L30.3838 11.9442H28.1983L31.5481 4.00619H33.6698L37.0035 11.945H34.7756L34.1788 10.401ZM33.5529 8.74658L32.5794 6.20521L31.6062 8.74658H33.5529ZM38.707 5.79382H36.3704V4.00579H43.1521V5.79382H40.8287V11.9442H38.707V5.79382ZM48.6458 10.401H45.4447L44.8508 11.9442H42.6652L46.007 4.00579H48.1287L51.4814 11.9446H49.2536L48.6458 10.401ZM48.0202 8.74658L47.0441 6.20521L46.0709 8.74658H48.0202ZM52.5807 4.00619H54.7237V10.165H58.3334V11.9442H52.5784L52.5807 4.00619ZM59.0303 7.97398C59.0303 5.59395 60.8153 3.84766 63.2394 3.84766C65.6636 3.84766 67.4457 5.59355 67.4457 7.97358C67.4457 10.3536 65.6607 12.1031 63.2394 12.1031C60.8179 12.1031 59.0303 10.3568 59.0303 7.97398ZM65.284 7.97398C65.284 6.60295 64.3853 5.70793 63.2394 5.70793C62.0936 5.70793 61.1946 6.60295 61.1946 7.97398C61.1946 9.3446 62.0936 10.2428 63.2394 10.2428C64.3853 10.2428 65.284 9.34781 65.284 7.97398ZM73.9333 7.8042H75.8374V11.0937C74.9091 11.7541 73.7957 12.1072 72.6548 12.1031C70.2416 12.1031 68.4805 10.3901 68.4805 7.97398C68.4805 5.55783 70.2335 3.84766 72.6896 3.84766C74.1057 3.84766 75.2541 4.35938 75.9994 5.29895L74.6363 6.59211C74.4144 6.3138 74.1327 6.0887 73.8119 5.93349C73.4962 5.78104 73.1491 5.70383 72.7984 5.70793C71.4985 5.70793 70.6341 6.60295 70.6341 7.97398C70.6341 9.3446 71.4985 10.2428 72.7771 10.2428C73.1776 10.2465 73.5733 10.157 73.9333 9.98155V7.8042Z" fill="#554B6A"/>
</g>
<path d="M11.9072 0H4.20756C3.09164 0 2.02144 0.44163 1.23237 1.22773C0.443296 2.01384 1.92925e-08 3.08002 1.92925e-08 4.19174V11.8624C-5.28952e-05 12.4129 0.108743 12.958 0.320174 13.4666C0.531605 13.9752 0.841529 14.4373 1.23225 14.8265C1.62297 15.2158 2.08682 15.5245 2.59733 15.7352C3.10784 15.9458 3.655 16.0542 4.20756 16.0542H11.9072C12.4597 16.0542 13.0069 15.9458 13.5174 15.7352C14.0279 15.5245 14.4918 15.2158 14.8825 14.8265C15.2732 14.4373 15.5831 13.9752 15.7946 13.4666C16.006 12.958 16.1148 12.4129 16.1147 11.8624V4.19174C16.1147 3.08002 15.6714 2.01384 14.8824 1.22773C14.0933 0.44163 13.0231 0 11.9072 0ZM13.7604 11.0412H2.35557V9.13161H5.7437L3.07389 6.47183L4.42954 5.12168L7.09894 7.78145V4.04765H9.01539V7.78145L11.6864 5.12168L13.0417 6.47183L10.3714 9.13161H13.7612V11.0416L13.7604 11.0412Z" fill="#554B6A"/>
</svg>
