<svg width="33" height="32" viewBox="0 0 33 32" fill="none" xmlns="http://www.w3.org/2000/svg">
<path fill-rule="evenodd" clip-rule="evenodd" d="M16.6995 0C21.0101 0 24.6495 2.87823 25.8069 6.8207C29.7987 7.94419 32.7254 11.617 32.7254 15.9745C32.7254 20.3161 29.8201 23.978 25.8506 25.1159C24.7138 29.0908 21.0585 31.9999 16.7249 31.9999C12.3912 31.9999 8.73588 29.0908 7.59915 25.1158C3.62981 23.9778 0.724609 20.316 0.724609 15.9745C0.72461 11.6373 3.62412 7.97842 7.58749 6.83656C8.73969 2.88595 12.3831 0 16.6995 0Z" fill="#F7CFDB"/>
<path d="M19.4853 13.0929C19.463 14.9247 16.5864 14.6764 15.6704 14.6652L15.7101 11.4237C16.6261 11.4349 19.5083 11.1802 19.4853 13.0929ZM20.1773 18.143C20.154 20.1577 16.7072 19.8857 15.6055 19.8728L15.6612 16.3023C16.7594 16.3173 20.2147 16.042 20.1885 18.146L20.1773 18.143ZM22.531 12.4075C22.3712 10.4819 20.7196 9.82017 18.6263 9.6076L18.6591 6.94084L17.034 6.91979L17.0016 9.51761C16.5767 9.51186 16.1404 9.51506 15.7069 9.51902L15.7247 6.90829L14.1039 6.88239L14.0718 9.54635C13.7192 9.55097 13.3737 9.55148 13.0381 9.54864L10.7996 9.51937L10.7789 11.2555C10.7789 11.2555 11.9822 11.2476 11.9551 11.2704C12.4094 11.2183 12.8216 11.5399 12.8817 11.9931L12.854 15.0216C12.9112 15.0222 12.9682 15.0265 13.0248 15.0343L12.8538 15.0336L12.7922 19.2871C12.7656 19.6048 12.4876 19.8414 12.1697 19.817C12.1949 19.8238 10.9907 19.8014 10.9907 19.8014L10.6436 21.7353L12.757 21.7611L13.9192 21.7722L13.8881 24.4665L15.5104 24.4867L15.5338 21.8325C15.9649 21.8489 16.3982 21.8569 16.8295 21.8614L16.7961 24.519L18.4184 24.5393L18.4552 21.8465C21.191 21.7238 23.1048 21.0594 23.3729 18.5008C23.5863 16.4379 22.6344 15.5072 21.0937 15.1154C22.0416 14.6487 22.6439 13.8131 22.5198 12.4045L22.531 12.4075Z" fill="#DB6A93"/>
</svg>
