<svg width="114" height="32" viewBox="0 0 114 32" fill="none" xmlns="http://www.w3.org/2000/svg">
<path d="M105.442 22.0308H103.225V10.4936H105.23L105.466 12.2631C106.197 10.9419 107.66 10.1633 109.288 10.1633C112.332 10.1633 113.724 12.0271 113.724 14.9763V22.0308H111.506V15.4718C111.506 13.136 110.421 12.1923 108.722 12.1923C106.646 12.1923 105.442 13.6787 105.442 15.9201V22.0308Z" fill="white"/>
<path d="M96.0066 22.3139C92.6092 22.3139 90.2734 19.8602 90.2734 16.274C90.2734 12.6642 92.562 10.1633 95.9123 10.1633C99.1918 10.1633 101.339 12.4282 101.339 15.8493V16.6751L92.4204 16.6986C92.5856 19.1288 93.8596 20.4736 96.0538 20.4736C97.7761 20.4736 98.9086 19.7658 99.2861 18.4446H101.362C100.796 20.9219 98.8614 22.3139 96.0066 22.3139ZM95.9123 12.0271C93.9776 12.0271 92.7507 13.1832 92.4676 15.2123H99.121C99.121 13.3012 97.8705 12.0271 95.9123 12.0271Z" fill="white"/>
<path d="M82.0941 22.3141C78.7439 22.3141 76.7148 19.8132 76.7148 16.2978C76.7148 12.7588 78.7675 10.1635 82.1885 10.1635C83.958 10.1635 85.4444 10.9421 86.223 12.3577V4.66626H88.4172V22.031H86.4353L86.2466 19.9312C85.4916 21.512 83.9344 22.3141 82.0941 22.3141ZM82.5424 20.3087C84.8074 20.3087 86.1994 18.6336 86.1994 16.227C86.1994 13.8677 84.8074 12.169 82.5424 12.169C80.2774 12.169 78.9562 13.8677 78.9562 16.227C78.9562 18.61 80.2774 20.3087 82.5424 20.3087Z" fill="white"/>
<path d="M76.3952 10.3999V12.4289H75.4043C73.3045 12.4289 72.0068 13.7029 72.0068 15.9207V22.0314H69.7891V10.5178H71.8653L72.0068 12.2637C72.4787 11.0605 73.6348 10.2583 75.2155 10.2583C75.6166 10.2583 75.9469 10.3055 76.3952 10.3999Z" fill="white"/>
<path d="M61.1491 22.3139C58.6718 22.3139 57.209 20.9219 57.209 18.8221C57.209 16.6986 58.7897 15.3774 61.503 15.1651L65.1364 14.882V14.5516C65.1364 12.617 63.9803 11.9328 62.4231 11.9328C60.5592 11.9328 59.4975 12.7585 59.4975 14.1506H57.5629C57.5629 11.744 59.5447 10.1633 62.5175 10.1633C65.3723 10.1633 67.307 11.6732 67.307 14.7876V22.0308H65.4195L65.1836 20.1669C64.5937 21.4881 63.013 22.3139 61.1491 22.3139ZM61.7861 20.5916C63.8859 20.5916 65.16 19.2231 65.16 17.0525V16.4391L62.2108 16.6751C60.2525 16.8638 59.4504 17.6188 59.4504 18.7513C59.4504 19.9781 60.3469 20.5916 61.7861 20.5916Z" fill="white"/>
<path d="M43.5332 15.9672C43.5332 12.7114 45.633 10.1633 48.9833 10.1633C50.8472 10.1633 52.2864 11.0126 53.0178 12.4518L53.1829 10.4936H55.1648V21.5589C55.1648 25.1923 52.9234 27.5044 49.3844 27.5044C46.2464 27.5044 44.0994 25.7349 43.6748 22.8093H45.8925C46.1757 24.5081 47.4497 25.499 49.3844 25.499C51.555 25.499 52.9706 24.0834 52.9706 21.8892V19.577C52.2156 20.9219 50.7056 21.724 48.8889 21.724C45.6094 21.724 43.5332 19.1995 43.5332 15.9672ZM45.751 15.9201C45.751 18.0907 47.0958 19.7894 49.2664 19.7894C51.5078 19.7894 52.8762 18.185 52.8762 15.9201C52.8762 13.7023 51.555 12.0979 49.29 12.0979C47.0722 12.0979 45.751 13.7967 45.751 15.9201Z" fill="white"/>
<path fill-rule="evenodd" clip-rule="evenodd" d="M15.9749 0C20.2855 0 23.9249 2.87823 25.0822 6.8207C29.0741 7.94419 32.0008 11.617 32.0008 15.9745C32.0008 20.3161 29.0955 23.978 25.126 25.1159C23.9892 29.0908 20.3339 31.9999 16.0003 31.9999C11.6666 31.9999 8.01127 29.0908 6.87454 25.1158C2.9052 23.9778 -1.89408e-07 20.316 0 15.9745C1.89291e-07 11.6373 2.89951 7.97842 6.86288 6.83656C8.01508 2.88595 11.6585 0 15.9749 0Z" fill="#F7CFDB"/>
<path d="M18.7607 13.0929C18.7384 14.9247 15.8618 14.6764 14.9458 14.6652L14.9855 11.4237C15.9014 11.4349 18.7837 11.1802 18.7607 13.0929ZM19.4527 18.143C19.4294 20.1577 15.9826 19.8857 14.8808 19.8728L14.9366 16.3023C16.0348 16.3173 19.4901 16.042 19.4639 18.146L19.4527 18.143ZM21.8064 12.4075C21.6466 10.4819 19.995 9.82017 17.9017 9.6076L17.9345 6.94084L16.3094 6.91979L16.277 9.51761C15.8521 9.51186 15.4158 9.51506 14.9823 9.51902L15.0001 6.90829L13.3793 6.88239L13.3472 9.54635C12.9946 9.55097 12.6491 9.55148 12.3135 9.54864L10.075 9.51937L10.0543 11.2555C10.0543 11.2555 11.2576 11.2476 11.2305 11.2704C11.6848 11.2183 12.097 11.5399 12.1571 11.9931L12.1294 15.0216C12.1865 15.0222 12.2436 15.0265 12.3002 15.0343L12.1292 15.0336L12.0676 19.2871C12.0409 19.6048 11.763 19.8414 11.4451 19.817C11.4703 19.8238 10.266 19.8014 10.266 19.8014L9.91903 21.7353L12.0324 21.7611L13.1946 21.7722L13.1635 24.4665L14.7857 24.4867L14.8092 21.8325C15.2403 21.8489 15.6736 21.8569 16.1049 21.8614L16.0715 24.519L17.6938 24.5393L17.7306 21.8465C20.4663 21.7238 22.3802 21.0594 22.6483 18.5008C22.8617 16.4379 21.9098 15.5072 20.3691 15.1154C21.317 14.6487 21.9193 13.8131 21.7952 12.4045L21.8064 12.4075Z" fill="#DB6A93"/>
</svg>
