<svg width="187" height="34" viewBox="0 0 187 34" fill="none" xmlns="http://www.w3.org/2000/svg">
<path d="M122.852 26.001V5.807H124.577V26.001H122.852ZM141.153 24H135.656V7.371H141.061C146.029 7.371 149.387 10.729 149.387 15.697C149.387 20.642 146.075 24 141.153 24ZM140.9 9.441H137.91V21.907H140.992C144.695 21.907 147.041 19.515 147.041 15.697C147.041 11.833 144.695 9.441 140.9 9.441ZM151.15 18.365C151.15 14.892 153.634 12.454 157.015 12.454C160.373 12.454 162.857 14.892 162.857 18.365C162.857 21.838 160.373 24.276 157.015 24.276C153.634 24.276 151.15 21.838 151.15 18.365ZM153.335 18.365C153.335 20.711 154.83 22.344 157.015 22.344C159.177 22.344 160.695 20.711 160.695 18.365C160.695 16.019 159.177 14.386 157.015 14.386C154.83 14.386 153.335 16.019 153.335 18.365ZM164.515 18.388C164.515 14.869 166.746 12.431 170.035 12.431C172.864 12.431 174.842 14.041 175.233 16.548H173.071C172.703 15.122 171.553 14.363 170.104 14.363C168.057 14.363 166.654 15.927 166.654 18.365C166.654 20.78 167.965 22.344 170.012 22.344C171.553 22.344 172.703 21.539 173.094 20.205H175.256C174.819 22.643 172.726 24.276 170.012 24.276C166.7 24.276 164.515 21.93 164.515 18.388ZM176.617 20.734H178.687C178.687 21.884 179.561 22.574 180.987 22.574C182.505 22.574 183.379 21.953 183.379 20.918C183.379 20.159 183.011 19.699 181.838 19.4L179.86 18.94C177.859 18.457 176.916 17.468 176.916 15.812C176.916 13.742 178.664 12.431 181.148 12.431C183.609 12.431 185.219 13.811 185.265 15.95H183.195C183.149 14.823 182.39 14.11 181.079 14.11C179.722 14.11 178.963 14.708 178.963 15.743C178.963 16.502 179.515 17.008 180.619 17.284L182.597 17.767C184.506 18.227 185.449 19.101 185.449 20.78C185.449 22.919 183.609 24.276 180.941 24.276C178.296 24.276 176.617 22.873 176.617 20.734Z" fill="#554B6A"/>
<path d="M105.442 24.0308H103.225V12.4936H105.23L105.466 14.2631C106.197 12.9419 107.66 12.1633 109.288 12.1633C112.332 12.1633 113.724 14.0271 113.724 16.9763V24.0308H111.506V17.4718C111.506 15.136 110.421 14.1923 108.722 14.1923C106.646 14.1923 105.442 15.6787 105.442 17.9201V24.0308Z" fill="#554B6A"/>
<path d="M96.0066 24.3139C92.6092 24.3139 90.2734 21.8602 90.2734 18.274C90.2734 14.6642 92.562 12.1633 95.9123 12.1633C99.1918 12.1633 101.339 14.4282 101.339 17.8493V18.6751L92.4204 18.6986C92.5856 21.1288 93.8596 22.4736 96.0538 22.4736C97.7761 22.4736 98.9086 21.7658 99.2861 20.4446H101.362C100.796 22.9219 98.8614 24.3139 96.0066 24.3139ZM95.9123 14.0271C93.9776 14.0271 92.7507 15.1832 92.4676 17.2123H99.121C99.121 15.3012 97.8705 14.0271 95.9123 14.0271Z" fill="#554B6A"/>
<path d="M82.0941 24.3141C78.7439 24.3141 76.7148 21.8132 76.7148 18.2978C76.7148 14.7588 78.7675 12.1635 82.1885 12.1635C83.958 12.1635 85.4444 12.9421 86.223 14.3577V6.66626H88.4172V24.031H86.4353L86.2466 21.9312C85.4916 23.512 83.9344 24.3141 82.0941 24.3141ZM82.5424 22.3087C84.8074 22.3087 86.1994 20.6336 86.1994 18.227C86.1994 15.8677 84.8074 14.169 82.5424 14.169C80.2774 14.169 78.9562 15.8677 78.9562 18.227C78.9562 20.61 80.2774 22.3087 82.5424 22.3087Z" fill="#554B6A"/>
<path d="M76.3952 12.3999V14.4289H75.4043C73.3045 14.4289 72.0068 15.7029 72.0068 17.9207V24.0314H69.7891V12.5178H71.8653L72.0068 14.2637C72.4787 13.0605 73.6348 12.2583 75.2155 12.2583C75.6166 12.2583 75.9469 12.3055 76.3952 12.3999Z" fill="#554B6A"/>
<path d="M61.1491 24.3139C58.6718 24.3139 57.209 22.9219 57.209 20.8221C57.209 18.6986 58.7897 17.3774 61.503 17.1651L65.1364 16.882V16.5516C65.1364 14.617 63.9803 13.9328 62.4231 13.9328C60.5592 13.9328 59.4975 14.7585 59.4975 16.1506H57.5629C57.5629 13.744 59.5447 12.1633 62.5175 12.1633C65.3723 12.1633 67.307 13.6732 67.307 16.7876V24.0308H65.4195L65.1836 22.1669C64.5937 23.4881 63.013 24.3139 61.1491 24.3139ZM61.7861 22.5916C63.8859 22.5916 65.16 21.2231 65.16 19.0525V18.4391L62.2108 18.6751C60.2525 18.8638 59.4504 19.6188 59.4504 20.7513C59.4504 21.9781 60.3469 22.5916 61.7861 22.5916Z" fill="#554B6A"/>
<path d="M43.5332 17.9672C43.5332 14.7114 45.633 12.1633 48.9833 12.1633C50.8472 12.1633 52.2864 13.0126 53.0178 14.4518L53.1829 12.4936H55.1648V23.5589C55.1648 27.1923 52.9234 29.5044 49.3844 29.5044C46.2464 29.5044 44.0994 27.7349 43.6748 24.8093H45.8925C46.1757 26.5081 47.4497 27.499 49.3844 27.499C51.555 27.499 52.9706 26.0834 52.9706 23.8892V21.577C52.2156 22.9219 50.7056 23.724 48.8889 23.724C45.6094 23.724 43.5332 21.1995 43.5332 17.9672ZM45.751 17.9201C45.751 20.0907 47.0958 21.7894 49.2664 21.7894C51.5078 21.7894 52.8762 20.185 52.8762 17.9201C52.8762 15.7023 51.555 14.0979 49.29 14.0979C47.0722 14.0979 45.751 15.7967 45.751 17.9201Z" fill="#554B6A"/>
<path fill-rule="evenodd" clip-rule="evenodd" d="M15.9749 2C20.2855 2 23.9249 4.87823 25.0822 8.8207C29.0741 9.94419 32.0008 13.617 32.0008 17.9745C32.0008 22.3161 29.0955 25.978 25.126 27.1159C23.9892 31.0908 20.3339 33.9999 16.0003 33.9999C11.6666 33.9999 8.01127 31.0908 6.87454 27.1158C2.9052 25.9778 -1.89408e-07 22.316 0 17.9745C1.89291e-07 13.6373 2.89951 9.97842 6.86288 8.83656C8.01508 4.88595 11.6585 2 15.9749 2Z" fill="#F7CFDB"/>
<path d="M18.7607 15.0929C18.7384 16.9247 15.8618 16.6764 14.9458 16.6652L14.9855 13.4237C15.9014 13.4349 18.7837 13.1802 18.7607 15.0929ZM19.4527 20.143C19.4294 22.1577 15.9826 21.8857 14.8808 21.8728L14.9366 18.3023C16.0348 18.3173 19.4901 18.042 19.4639 20.146L19.4527 20.143ZM21.8064 14.4075C21.6466 12.4819 19.995 11.8202 17.9017 11.6076L17.9345 8.94084L16.3094 8.91979L16.277 11.5176C15.8521 11.5119 15.4158 11.5151 14.9823 11.519L15.0001 8.90829L13.3793 8.88239L13.3472 11.5464C12.9946 11.551 12.6491 11.5515 12.3135 11.5486L10.075 11.5194L10.0543 13.2555C10.0543 13.2555 11.2576 13.2476 11.2305 13.2704C11.6848 13.2183 12.097 13.5399 12.1571 13.9931L12.1294 17.0216C12.1865 17.0222 12.2436 17.0265 12.3002 17.0343L12.1292 17.0336L12.0676 21.2871C12.0409 21.6048 11.763 21.8414 11.4451 21.817C11.4703 21.8238 10.266 21.8014 10.266 21.8014L9.91903 23.7353L12.0324 23.7611L13.1946 23.7722L13.1635 26.4665L14.7857 26.4867L14.8092 23.8325C15.2403 23.8489 15.6736 23.8569 16.1049 23.8614L16.0715 26.519L17.6938 26.5393L17.7306 23.8465C20.4663 23.7238 22.3802 23.0594 22.6483 20.5008C22.8617 18.4379 21.9098 17.5072 20.3691 17.1154C21.317 16.6487 21.9193 15.8131 21.7952 14.4045L21.8064 14.4075Z" fill="#DB6A93"/>
</svg>
