<svg width="114" height="32" viewBox="0 0 114 32" fill="none" xmlns="http://www.w3.org/2000/svg">
<path d="M105.442 22.0296H103.225V10.4924H105.23L105.466 12.2619C106.197 10.9407 107.66 10.1621 109.288 10.1621C112.332 10.1621 113.724 12.026 113.724 14.9752V22.0296H111.506V15.4706C111.506 13.1349 110.421 12.1911 108.722 12.1911C106.646 12.1911 105.442 13.6775 105.442 15.9189V22.0296Z" fill="#554B6A"/>
<path d="M96.0057 22.3127C92.6082 22.3127 90.2725 19.859 90.2725 16.2728C90.2725 12.663 92.561 10.1621 95.9113 10.1621C99.1908 10.1621 101.338 12.4271 101.338 15.8481V16.6739L92.4195 16.6975C92.5846 19.1276 93.8587 20.4724 96.0528 20.4724C97.7752 20.4724 98.9077 19.7646 99.2851 18.4434H101.361C100.795 20.9207 98.8605 22.3127 96.0057 22.3127ZM95.9113 12.026C93.9766 12.026 92.7498 13.1821 92.4666 15.2111H99.12C99.12 13.3 97.8695 12.026 95.9113 12.026Z" fill="#554B6A"/>
<path d="M82.0951 22.3139C78.7449 22.3139 76.7158 19.813 76.7158 16.2976C76.7158 12.7586 78.7684 10.1633 82.1895 10.1633C83.959 10.1633 85.4454 10.9419 86.224 12.3575V4.66602H88.4182V22.0308H86.4363L86.2476 19.931C85.4926 21.5117 83.9354 22.3139 82.0951 22.3139ZM82.5434 20.3084C84.8084 20.3084 86.2004 18.6333 86.2004 16.2268C86.2004 13.8674 84.8084 12.1687 82.5434 12.1687C80.2784 12.1687 78.9572 13.8674 78.9572 16.2268C78.9572 18.6097 80.2784 20.3084 82.5434 20.3084Z" fill="#554B6A"/>
<path d="M76.3952 10.3994V12.4284H75.4043C73.3045 12.4284 72.0068 13.7025 72.0068 15.9202V22.0309H69.7891V10.5173H71.8653L72.0068 12.2633C72.4787 11.06 73.6348 10.2578 75.2155 10.2578C75.6166 10.2578 75.9469 10.305 76.3952 10.3994Z" fill="#554B6A"/>
<path d="M61.1491 22.3127C58.6718 22.3127 57.209 20.9207 57.209 18.8209C57.209 16.6975 58.7897 15.3763 61.503 15.1639L65.1364 14.8808V14.5505C65.1364 12.6158 63.9803 11.9316 62.4231 11.9316C60.5592 11.9316 59.4975 12.7574 59.4975 14.1494H57.5629C57.5629 11.7429 59.5447 10.1621 62.5175 10.1621C65.3723 10.1621 67.307 11.6721 67.307 14.7864V22.0296H65.4195L65.1836 20.1657C64.5937 21.4869 63.013 22.3127 61.1491 22.3127ZM61.7861 20.5904C63.8859 20.5904 65.16 19.222 65.16 17.0514V16.438L62.2108 16.6739C60.2525 16.8626 59.4504 17.6176 59.4504 18.7501C59.4504 19.977 60.3469 20.5904 61.7861 20.5904Z" fill="#554B6A"/>
<path d="M43.5332 15.9661C43.5332 12.7102 45.633 10.1621 48.9833 10.1621C50.8472 10.1621 52.2864 11.0115 53.0178 12.4507L53.1829 10.4924H55.1648V21.5577C55.1648 25.1911 52.9234 27.5033 49.3844 27.5033C46.2464 27.5033 44.0994 25.7338 43.6748 22.8082H45.8925C46.1757 24.5069 47.4497 25.4978 49.3844 25.4978C51.555 25.4978 52.9706 24.0822 52.9706 21.888V19.5759C52.2156 20.9207 50.7056 21.7229 48.8889 21.7229C45.6094 21.7229 43.5332 19.1984 43.5332 15.9661ZM45.751 15.9189C45.751 18.0895 47.0958 19.7882 49.2664 19.7882C51.5078 19.7882 52.8762 18.1839 52.8762 15.9189C52.8762 13.7011 51.555 12.0968 49.29 12.0968C47.0722 12.0968 45.751 13.7955 45.751 15.9189Z" fill="#554B6A"/>
<path fill-rule="evenodd" clip-rule="evenodd" d="M15.9738 0C20.2843 0 23.9237 2.87812 25.0811 6.82046C29.0734 7.94368 32.0005 11.6167 32.0005 15.9745C32.0005 20.316 29.0953 23.9778 25.126 25.1158C23.9892 29.0908 20.3339 32 16.0002 32C11.6665 32 8.01119 29.0908 6.87447 25.1158C2.90517 23.9777 0 20.316 0 15.9745C1.63071e-06 11.6377 2.89894 7.97914 6.8617 6.8369C8.01379 2.88612 11.6573 0 15.9738 0Z" fill="#F7CFDB"/>
<path d="M18.7617 13.0927C18.7394 14.9244 15.8627 14.6761 14.9468 14.6649L14.9864 11.4235C15.9024 11.4347 18.7847 11.18 18.7617 13.0927ZM19.4537 18.1427C19.4304 20.1574 15.9835 19.8855 14.8818 19.8725L14.9376 16.302C16.0357 16.317 19.4911 16.0417 19.4649 18.1457L19.4537 18.1427ZM21.8074 12.4073C21.6476 10.4817 19.996 9.81993 17.9027 9.60736L17.9355 6.94059L16.3104 6.91955L16.278 9.51737C15.8531 9.51162 15.4168 9.51482 14.9833 9.51877L15.0011 6.90804L13.3803 6.88214L13.3482 9.54611C12.9956 9.55072 12.6501 9.55123 12.3145 9.54839L10.0759 9.51912L10.0552 11.2552C10.0552 11.2552 11.2586 11.2474 11.2315 11.2701C11.6858 11.2181 12.098 11.5396 12.158 11.9929L12.1304 15.0214C12.1875 15.022 12.2446 15.0262 12.3012 15.0341L12.1302 15.0333L12.0686 19.2869C12.0419 19.6045 11.7639 19.8412 11.4461 19.8168C11.4713 19.8235 10.267 19.8011 10.267 19.8011L9.92 21.7351L12.0334 21.7608L13.1956 21.772L13.1644 24.4662L14.7867 24.4865L14.8102 21.8322C15.2413 21.8487 15.6746 21.8567 16.1059 21.8611L16.0725 24.5187L17.6948 24.539L17.7315 21.8463C20.4673 21.7235 22.3812 21.0592 22.6493 18.5005C22.8627 16.4377 21.9108 15.507 20.37 15.1151C21.318 14.6484 21.9203 13.8129 21.7962 12.4043L21.8074 12.4073Z" fill="#DB6A93"/>
</svg>
