<svg width="240" height="240" viewBox="0 0 240 240" fill="none" xmlns="http://www.w3.org/2000/svg">
<path fill-rule="evenodd" clip-rule="evenodd" d="M119.818 10C149.451 10 174.471 29.7852 182.429 56.8867C209.876 64.6084 230 89.8602 230 119.82C230 149.666 210.028 174.84 182.74 182.665C174.928 209.996 149.796 230 120 230C90.2033 230 65.0714 209.996 57.2591 182.665C29.9717 174.84 10 149.666 10 119.82C10 90.0047 29.9304 64.852 57.1745 56.9996C65.096 29.8401 90.144 10 119.818 10Z" fill="#F7CFDB"/>
<path d="M138.981 100.003C138.827 112.596 119.051 110.89 112.754 110.812L113.026 88.5277C119.324 88.6047 139.139 86.8538 138.981 100.003ZM143.738 134.722C143.578 148.573 119.881 146.703 112.307 146.614L112.69 122.067C120.24 122.17 143.995 120.278 143.815 134.743L143.738 134.722ZM159.919 95.2915C158.821 82.0532 147.466 77.5036 133.075 76.0422L133.301 57.7085L122.128 57.5639L121.906 75.4236C118.985 75.384 115.985 75.4061 113.004 75.4332L113.127 57.4848L101.984 57.3067L101.764 75.6212C99.3395 75.6529 96.9642 75.6564 94.657 75.6369L79.2673 75.4356L79.1248 87.3712C79.1248 87.3712 87.398 87.3171 87.2115 87.4736C90.3345 87.1159 93.1683 89.3263 93.5814 92.4422L93.3913 113.263C93.7841 113.267 94.1762 113.296 94.5653 113.35L93.3899 113.345L92.9664 142.588C92.7831 144.772 90.8721 146.398 88.6869 146.231C88.8602 146.277 80.5809 146.123 80.5809 146.123L78.1952 159.419L92.7242 159.596L100.715 159.673L100.5 178.195L111.653 178.335L111.815 160.087C114.778 160.2 117.757 160.255 120.722 160.285L120.493 178.556L131.646 178.696L131.899 160.183C150.707 159.339 163.864 154.772 165.708 137.182C167.175 123 160.63 116.601 150.038 113.908C156.555 110.699 160.695 104.955 159.842 95.2709L159.919 95.2915Z" fill="#DB6A93"/>
</svg>
