<svg width="800" height="240" viewBox="0 0 800 240" fill="none" xmlns="http://www.w3.org/2000/svg">
<path d="M733.909 161.459H718.662V82.1418H732.449L734.071 94.307C739.1 85.2237 749.156 79.871 760.348 79.871C781.272 79.871 790.842 92.6849 790.842 112.96V161.459H775.595V116.366C775.595 100.308 768.134 93.8204 756.455 93.8204C742.181 93.8204 733.909 104.039 733.909 119.448V161.459Z" fill="white"/>
<path d="M669.03 163.405C645.673 163.405 629.615 146.536 629.615 121.881C629.615 97.0644 645.348 79.871 668.381 79.871C690.927 79.871 705.687 95.4424 705.687 118.962V124.639L644.375 124.801C645.51 141.508 654.269 150.753 669.354 150.753C681.195 150.753 688.981 145.887 691.576 136.804H705.85C701.957 153.835 688.656 163.405 669.03 163.405ZM668.381 92.685C655.08 92.685 646.646 100.633 644.699 114.582H690.44C690.44 101.444 681.844 92.685 668.381 92.685Z" fill="white"/>
<path d="M573.394 163.405C550.361 163.405 536.412 146.212 536.412 122.043C536.412 97.7132 550.523 79.871 574.043 79.871C586.208 79.871 596.427 85.2237 601.779 94.9558V42.078H616.864V161.459H603.239L601.941 147.023C596.751 157.89 586.046 163.405 573.394 163.405ZM576.476 149.618C592.047 149.618 601.617 138.101 601.617 121.557C601.617 105.337 592.047 93.6582 576.476 93.6582C560.904 93.6582 551.821 105.337 551.821 121.557C551.821 137.939 560.904 149.618 576.476 149.618Z" fill="white"/>
<path d="M534.208 81.493V95.4424H527.396C512.96 95.4424 504.039 104.201 504.039 119.448V161.459H488.792V82.304H503.065L504.039 94.307C507.283 86.0347 515.231 80.5198 526.098 80.5198C528.856 80.5198 531.126 80.8442 534.208 81.493Z" fill="white"/>
<path d="M429.397 163.405C412.365 163.405 402.309 153.835 402.309 139.399C402.309 124.801 413.176 115.718 431.83 114.258L456.809 112.311V110.041C456.809 96.74 448.861 92.0361 438.156 92.0361C425.342 92.0361 418.043 97.7132 418.043 107.283H404.742C404.742 90.7385 418.367 79.871 438.804 79.871C458.431 79.871 471.731 90.2519 471.731 111.663V161.459H458.755L457.133 148.645C453.078 157.728 442.211 163.405 429.397 163.405ZM433.776 151.564C448.212 151.564 456.971 142.157 456.971 127.234V123.017L436.696 124.639C423.233 125.936 417.718 131.127 417.718 138.912C417.718 147.347 423.882 151.564 433.776 151.564Z" fill="white"/>
<path d="M308.288 119.773C308.288 97.3888 322.724 79.871 345.756 79.871C358.57 79.871 368.464 85.7103 373.493 95.6046L374.628 82.1418H388.253V158.215C388.253 183.194 372.844 199.089 348.514 199.089C326.941 199.089 312.18 186.924 309.261 166.811H324.508C326.454 178.49 335.213 185.302 348.514 185.302C363.436 185.302 373.168 175.57 373.168 160.485V144.59C367.978 153.835 357.597 159.35 345.107 159.35C322.561 159.35 308.288 141.994 308.288 119.773ZM323.535 119.448C323.535 134.371 332.78 146.049 347.703 146.049C363.112 146.049 372.52 135.02 372.52 119.448C372.52 104.201 363.436 93.1716 347.865 93.1716C332.618 93.1716 323.535 104.85 323.535 119.448Z" fill="white"/>
<path fill-rule="evenodd" clip-rule="evenodd" d="M118.818 10C148.451 10 173.471 29.7852 181.429 56.8867C208.876 64.6084 229 89.8602 229 119.82C229 149.666 209.028 174.84 181.74 182.665C173.928 209.996 148.796 230 119 230C89.2033 230 64.0714 209.996 56.2591 182.665C28.9717 174.84 9 149.666 9 119.82C9 90.0047 28.9304 64.852 56.1745 56.9996C64.096 29.8401 89.144 10 118.818 10Z" fill="#F7CFDB"/>
<path d="M137.981 100.003C137.827 112.597 118.051 110.89 111.754 110.813L112.026 88.5277C118.324 88.6048 138.139 86.8538 137.981 100.003ZM142.738 134.722C142.578 148.573 118.881 146.703 111.307 146.614L111.69 122.067C119.24 122.17 142.995 120.278 142.815 134.743L142.738 134.722ZM158.919 95.2916C157.821 82.0532 146.466 77.5037 132.075 76.0423L132.301 57.7086L121.128 57.5639L120.906 75.4236C117.985 75.3841 114.985 75.4061 112.004 75.4333L112.127 57.4848L100.984 57.3068L100.764 75.6212C98.3395 75.6529 95.9642 75.6564 93.657 75.6369L78.2673 75.4357L78.1248 87.3713C78.1248 87.3713 86.398 87.3172 86.2115 87.4737C89.3345 87.1159 92.1683 89.3264 92.5814 92.4423L92.3913 113.263C92.7841 113.267 93.1762 113.296 93.5653 113.35L92.3899 113.345L91.9664 142.588C91.7831 144.772 89.8721 146.398 87.6869 146.231C87.8602 146.277 79.5809 146.123 79.5809 146.123L77.1952 159.419L91.7242 159.596L99.7146 159.673L99.5002 178.195L110.653 178.335L110.815 160.087C113.778 160.2 116.757 160.255 119.722 160.285L119.493 178.556L130.646 178.696L130.899 160.183C149.707 159.339 162.864 154.772 164.708 137.182C166.175 123 159.63 116.601 149.038 113.908C155.555 110.699 159.695 104.955 158.842 95.2709L158.919 95.2916Z" fill="#DB6A93"/>
</svg>
